
<svg version="1.1" id="Capa_1" xmlns="http://www.w3.org/2000/svg" xmlns:xlink="http://www.w3.org/1999/xlink" x="0px" y="0px"
	 width="40px" height="50px" viewBox="0 0 435.215 435.215" style="enable-background:new 0 0 435.215 435.215;"
	 xml:space="preserve">
<g>
	<g>
		<path d="M185.248,140.723c2.522-2.237,4.999-4.531,7.563-6.731c-2.747-1.988-5.503-3.973-8.227-5.831
			c-0.405-0.282-0.832-0.546-1.237-0.828c-3.062-2.06-6.086-4.029-9.094-5.921c-0.922-0.592-1.85-1.165-2.771-1.735
			c-3.365-2.066-6.692-4.065-9.979-5.909c-21.41-12.016-40.244-18.633-53.035-18.633c-3.438,0-8.038,0.505-10.436,2.909
			c-5.239,5.239-4.191,24.215,10.496,53.503c0,0,0,0.012,0.012,0.018c0.051,0.111,0.111,0.216,0.168,0.328
			c1.396,2.759,2.906,5.581,4.483,8.428c0.453,0.819,0.909,1.63,1.369,2.44c1.564,2.738,3.186,5.51,4.903,8.308
			c0.153,0.271,0.312,0.535,0.478,0.808c1.889,3.048,3.882,6.143,5.948,9.248c0.529,0.792,1.057,1.591,1.597,2.39
			c1.877,2.762,3.795,5.548,5.786,8.334c0.228,0.324,0.444,0.636,0.672,0.958c3.263-3.807,6.602-7.575,10.004-11.328
			c5.981-6.578,12.142-13.045,18.306-19.209c5.668-5.668,11.541-11.202,17.51-16.657
			C181.576,143.959,183.416,142.358,185.248,140.723z"/>
		<path d="M183.999,251.205c5.621,5.62,11.433,11.139,17.366,16.531c1.955,1.777,3.996,3.464,5.996,5.229
			c3.387,2.984,6.789,5.944,10.244,8.839c3.45-2.882,6.843-5.824,10.217-8.803c2.006-1.777,4.06-3.482,6.041-5.284
			c5.909-5.368,11.722-10.868,17.342-16.489c3.981-3.999,8.011-8.202,12.01-12.478c0.475-0.517,0.942-1.021,1.423-1.538
			c0.253-6.557,0.48-13.138,0.48-19.587c0-5.711-0.144-11.583-0.342-17.48c-0.024-0.681-0.048-1.369-0.072-2.053
			c-0.456-0.493-0.913-0.985-1.381-1.462c-3.999-4.287-8.047-8.542-12.13-12.613c-5.633-5.632-11.457-11.147-17.39-16.54
			c-1.916-1.727-3.879-3.375-5.812-5.071c-3.436-3.039-6.894-6.041-10.397-8.971c-3.426,2.858-6.795,5.779-10.148,8.737
			c-2.042,1.795-4.119,3.528-6.134,5.362c-5.912,5.38-11.709,10.877-17.318,16.483c-4.068,4.071-8.127,8.32-12.142,12.619
			c-0.457,0.48-0.913,0.97-1.372,1.462c-0.036,0.697-0.063,1.396-0.087,2.078c-0.189,5.873-0.324,11.733-0.324,17.438
			c0,5.717,0.129,11.565,0.324,17.438c0.024,0.696,0.051,1.387,0.087,2.077c1.12,1.213,2.243,2.433,3.363,3.615
			c0.744,0.793,1.477,1.579,2.219,2.359C178.718,245.849,181.375,248.574,183.999,251.205z"/>
		<path d="M99.097,238.835c2.952-4.504,6.098-9.067,9.377-13.644c0.732-1.021,1.486-2.029,2.23-3.05
			c1.108-1.514,2.165-3.015,3.303-4.54c-1.144-1.513-2.195-3.012-3.303-4.524c-0.745-1.021-1.498-2.042-2.23-3.062
			c-3.291-4.572-6.425-9.124-9.377-13.643c-0.516-0.769-0.984-1.538-1.477-2.306c-2.606-4.047-5.08-8.061-7.422-12.04
			c-0.492-0.838-0.997-1.672-1.474-2.504c-0.279-0.478-0.591-0.964-0.855-1.438c-24.788,11.641-39.704,26.256-39.704,39.523
			c0,13.283,14.916,27.898,39.704,39.542c0.264-0.48,0.576-0.973,0.855-1.441c0.478-0.828,0.982-1.669,1.474-2.498
			c2.342-3.987,4.816-8.011,7.422-12.058C98.124,240.372,98.581,239.604,99.097,238.835z"/>
		<path d="M286.957,121.624c0.252,1.273,0.504,2.54,0.757,3.831c0.889,4.765,1.753,9.604,2.51,14.58
			c2.474,16.282,4.155,33.455,4.996,51.049c0.144,3.147,0.276,6.275,0.378,9.401c0.061-0.075,0.108-0.142,0.162-0.229
			c2.858-3.78,5.585-7.563,8.215-11.325c0.378-0.531,0.757-1.06,1.135-1.588c2.516-3.639,4.912-7.254,7.218-10.839
			c0.433-0.685,0.871-1.372,1.297-2.054c2.246-3.561,4.384-7.085,6.377-10.553c0.318-0.546,0.606-1.087,0.907-1.636
			c2.054-3.627,3.999-7.218,5.759-10.704c14.693-29.306,15.75-48.293,10.508-53.527c-2.407-2.405-7.007-2.909-10.43-2.909
			c-10.677,0-25.569,4.611-42.664,13.129c0.149,0.633,0.275,1.315,0.414,1.949C285.365,113.932,286.188,117.733,286.957,121.624z"/>
		<path d="M190.991,95.632c2.909,1.834,5.81,3.72,8.755,5.696c1.261,0.855,2.534,1.726,3.807,2.606
			c2.735,1.895,5.503,3.843,8.266,5.854c1.198,0.874,2.39,1.714,3.591,2.606c3.891,2.892,7.812,5.861,11.727,8.972
			c1.514,1.201,3.027,2.44,4.54,3.695l1.874,1.538c6.064,4.975,11.997,10.139,17.87,15.396c1.537,1.384,3.062,2.769,4.587,4.171
			c1.502,1.372,3.027,2.699,4.516,4.089c-0.264-1.847-0.42-3.777-0.696-5.59c-2.21-14.493-5.056-28.003-8.467-40.127
			c-12.454-44.309-27.526-56.009-33.756-56.009c-5.671,0-18.651,9.677-30.327,44.745c0.327,0.198,0.646,0.417,0.973,0.622
			C189.166,94.446,190.082,95.056,190.991,95.632z"/>
		<path d="M148.237,313.582c-0.252-1.261-0.504-2.533-0.745-3.818c-0.898-4.768-1.75-9.607-2.519-14.58
			c-2.474-16.309-4.158-33.482-4.999-51.053c-0.141-3.146-0.276-6.27-0.375-9.403c-0.099,0.132-0.192,0.265-0.288,0.396
			c-2.81,3.729-5.503,7.458-8.106,11.163c-0.363,0.516-0.745,1.051-1.105,1.566c-2.534,3.663-4.951,7.29-7.257,10.887
			c-0.417,0.654-0.829,1.31-1.249,1.964c-2.255,3.579-4.396,7.122-6.401,10.622c-0.312,0.529-0.588,1.045-0.892,1.574
			c-2.065,3.645-4.008,7.247-5.768,10.736c-14.699,29.309-15.759,48.297-10.508,53.539c2.405,2.407,7.005,2.912,10.437,2.912
			c10.662,0,25.553-4.612,42.649-13.145c-0.168-0.667-0.303-1.411-0.456-2.078C149.813,321.185,149.006,317.426,148.237,313.582z"/>
		<path d="M347.348,178.078c-0.283,0.486-0.595,0.979-0.883,1.462c-0.457,0.808-0.961,1.625-1.424,2.429
			c-2.348,3.993-4.815,8.013-7.439,12.073c-0.498,0.78-0.979,1.562-1.495,2.342c-2.948,4.501-6.077,9.046-9.35,13.619
			c-0.745,1.021-1.501,2.054-2.246,3.086c-1.104,1.501-2.168,3-3.303,4.513c1.142,1.525,2.198,3.026,3.315,4.54
			c0.744,1.021,1.488,2.042,2.222,3.062c3.284,4.575,6.437,9.139,9.385,13.643c0.505,0.769,0.955,1.525,1.447,2.294
			c2.637,4.059,5.104,8.095,7.446,12.082c0.48,0.828,0.997,1.663,1.465,2.474c0.276,0.48,0.576,0.961,0.859,1.44
			c24.781-11.643,39.686-26.258,39.686-39.541C387.033,204.334,372.129,189.707,347.348,178.078z"/>
		<path d="M244.377,339.68c-2.961-1.874-5.951-3.808-8.947-5.825c-1.237-0.829-2.468-1.681-3.717-2.534
			c-2.774-1.922-5.572-3.902-8.383-5.944c-1.165-0.841-2.32-1.669-3.482-2.534c-3.915-2.895-7.828-5.873-11.782-8.995
			c0-0.012,0-0.012-0.012-0.012c-1.549-1.237-3.11-2.522-4.671-3.808l-1.729-1.429c-6.086-4.984-12.045-10.166-17.93-15.444
			c-1.514-1.357-3.012-2.715-4.513-4.096c-1.501-1.369-3.039-2.714-4.524-4.107c0.264,1.85,0.417,3.783,0.693,5.597
			c2.207,14.495,5.056,28.007,8.467,40.136c12.451,44.304,27.529,56.02,33.771,56.02c5.666-0.013,18.648-9.686,30.31-44.754
			c-0.336-0.217-0.666-0.444-1.021-0.648C246.053,340.772,245.212,340.208,244.377,339.68z"/>
		<path d="M435.215,217.602c0-29.333-18.584-55.764-52.739-75.507c13.012-41.665,1.561-65.314-11.241-78.123
			c-7.765-7.758-21.785-17.021-44.489-17.021c-12.538,0-26.613,2.874-41.998,8.56c-20.843-45.102-47.504-55.175-67.148-55.175
			c-19.636,0-46.297,10.073-67.134,55.175c-15.387-5.68-29.447-8.554-41.985-8.554c-22.707,0-36.74,9.262-44.508,17.021
			C51.17,76.78,39.728,100.437,52.734,142.095C18.576,161.844,0,188.262,0,217.602c0,29.346,18.576,55.761,52.734,75.517
			c-13.006,41.661-1.564,65.32,11.238,78.122c7.773,7.758,21.786,17.018,44.508,17.018c12.538,0,26.613-2.87,41.985-8.551
			c20.837,45.108,47.51,55.172,67.146,55.172h0.013c19.62,0,46.281-10.076,67.124-55.184c15.396,5.692,29.46,8.562,41.998,8.562
			c22.704,0,36.737-9.247,44.501-17.018c12.803-12.814,24.241-36.461,11.241-78.122
			C416.625,273.362,435.215,246.941,435.215,217.602z M360.9,284.724c17.203,41.709,8.898,63.302-1.976,74.195
			c-5.446,5.428-15.438,11.913-32.18,11.913c-14.521,0-31.79-4.75-51.462-14.027c-14.201,39.277-34.347,60.637-57.673,60.648l0,0
			c-23.334,0-43.486-21.365-57.685-60.648c-19.657,9.277-36.942,14.027-51.446,14.027c0,0,0,0-0.012,0
			c-16.744,0-26.736-6.485-32.17-11.913c-10.884-10.894-19.18-32.475-1.994-74.195c-36.794-17.306-56.877-40.785-56.877-67.122
			c0-26.322,20.083-49.804,56.89-67.121c-17.186-41.707-8.896-63.291,1.993-74.172c5.429-5.437,15.42-11.919,32.171-11.919
			c14.517,0,31.789,4.75,51.446,14.009c14.198-39.274,34.35-60.63,57.673-60.63c23.338,0,43.483,21.362,57.685,60.63
			c19.654-9.259,36.941-14.015,51.462-14.015c16.741,0,26.733,6.482,32.167,11.919c10.887,10.887,19.18,32.471,1.988,74.178
			c36.809,17.306,56.877,40.793,56.877,67.121C417.777,243.938,397.709,267.418,360.9,284.724z"/>
		<path d="M321.941,274.768c-0.402-0.732-0.817-1.447-1.231-2.18c-1.604-2.834-3.267-5.687-5.044-8.581
			c-0.126-0.216-0.24-0.414-0.379-0.624c-1.885-3.062-3.902-6.174-5.969-9.284c-0.528-0.792-1.068-1.597-1.609-2.401
			c-1.849-2.75-3.771-5.513-5.752-8.305c-0.24-0.33-0.469-0.654-0.709-0.997c-3.254,3.808-6.605,7.584-10.004,11.343
			c-6.053,6.647-12.201,13.115-18.303,19.216c-5.674,5.669-11.529,11.187-17.492,16.627c-1.837,1.682-3.717,3.303-5.566,4.966
			c-2.497,2.216-4.966,4.486-7.5,6.666c2.751,1.993,5.507,3.969,8.215,5.836c0.421,0.289,0.847,0.553,1.262,0.841
			c3.062,2.065,6.101,4.035,9.097,5.933c0.913,0.564,1.813,1.141,2.714,1.693c3.363,2.078,6.714,4.071,10.004,5.921
			c21.426,12.021,40.269,18.651,53.047,18.651c3.435,0,8.034-0.505,10.437-2.912c5.236-5.255,4.191-24.23-10.509-53.539
			C325.207,280.736,323.61,277.77,321.941,274.768z"/>
	</g>
</g>
<g>
</g>
<g>
</g>
<g>
</g>
<g>
</g>
<g>
</g>
<g>
</g>
<g>
</g>
<g>
</g>
<g>
</g>
<g>
</g>
<g>
</g>
<g>
</g>
<g>
</g>
<g>
</g>
<g>
</g>
</svg>
